<svg width="30" height="31" viewBox="0 0 30 31" fill="none" xmlns="http://www.w3.org/2000/svg">
<path d="M26.2844 7.04595C24.2202 5.3005 21.7431 4.42777 19.1284 4.28232L18.7156 4.71868C21.055 5.3005 23.1193 6.46414 25.0459 8.06414C22.7064 6.75505 20.0917 5.88232 17.3395 5.59141C16.5138 5.44595 15.8257 5.44595 15 5.44595C14.1743 5.44595 13.4862 5.44595 12.6606 5.59141C9.90826 5.88232 7.29358 6.75505 4.95413 8.06414C6.88073 6.46414 8.94495 5.3005 11.2844 4.71868L10.8716 4.28232C8.25688 4.42777 5.77982 5.3005 3.7156 7.04595C1.37615 11.7005 0.137615 16.9369 0 22.3187C2.06422 24.646 4.95413 26.1005 7.98165 26.1005C7.98165 26.1005 8.94495 24.9369 9.63303 23.9187C7.84404 23.4823 6.19266 22.4641 5.09174 20.8641C6.05505 21.446 7.01835 22.0278 7.98165 22.4641C9.22018 23.046 10.4587 23.3369 11.6972 23.6278C12.7982 23.7732 13.8991 23.9187 15 23.9187C16.1009 23.9187 17.2018 23.7732 18.3028 23.6278C19.5413 23.3369 20.7798 23.046 22.0183 22.4641C22.9817 22.0278 23.945 21.446 24.9083 20.8641C23.8073 22.4641 22.156 23.4823 20.367 23.9187C21.055 24.9369 22.0183 26.1005 22.0183 26.1005C25.0459 26.1005 27.9358 24.646 30 22.3187C29.8624 16.9369 28.6239 11.7005 26.2844 7.04595ZM10.4587 19.7005C9.08257 19.7005 7.84404 18.3914 7.84404 16.7914C7.84404 15.1914 9.08257 13.8823 10.4587 13.8823C11.8349 13.8823 13.0734 15.1914 13.0734 16.7914C13.0734 18.3914 11.8349 19.7005 10.4587 19.7005ZM19.5413 19.7005C18.1651 19.7005 16.9266 18.3914 16.9266 16.7914C16.9266 15.1914 18.1651 13.8823 19.5413 13.8823C20.9174 13.8823 22.156 15.1914 22.156 16.7914C22.156 18.3914 20.9174 19.7005 19.5413 19.7005Z" fill="#EDE5B3"/>
</svg>
