<svg width="503" height="503" viewBox="0 0 503 503" fill="none" xmlns="http://www.w3.org/2000/svg">
<path fill-rule="evenodd" clip-rule="evenodd" d="M477.85 250.757H25.15V246.277H477.85L477.85 250.757Z" fill="#9E9773"/>
<path fill-rule="evenodd" clip-rule="evenodd" d="M315.583 208.558H187.42V204.079H315.583V208.558Z" fill="#9E9773"/>
<path fill-rule="evenodd" clip-rule="evenodd" d="M312.823 294.975H190.177V290.496H312.823V294.975Z" fill="#9E9773"/>
<path fill-rule="evenodd" clip-rule="evenodd" d="M249.26 352.912V139.33H253.74V352.912H249.26Z" fill="#9E9773"/>
<path fill-rule="evenodd" clip-rule="evenodd" d="M243.68 499.972V492.816V473.164H253.74V492.93V499.972H243.68Z" fill="#9E9773"/>
<path fill-rule="evenodd" clip-rule="evenodd" d="M139.509 447.205V54.6783H143.989L143.989 447.205H139.509Z" fill="#9E9773"/>
<path fill-rule="evenodd" clip-rule="evenodd" d="M359.012 447.689L359.012 54.6783H363.491L363.491 447.689H359.012Z" fill="#9E9773"/>
<path fill-rule="evenodd" clip-rule="evenodd" d="M251.494 248.071L252.611 248.575C289.84 254.178 363.491 302.123 363.491 446.997H359.115C359.115 304.751 286.428 258.048 251.494 252.512C207.944 264.575 182.507 299.877 165.995 338.419C149.418 377.111 143.884 419.674 143.884 446.997L139.509 446.997C139.508 419.125 145.131 375.848 162.03 336.403C178.941 296.93 204.941 260.997 250.424 248.575L251.494 248.071Z" fill="#9E9773"/>
<path fill-rule="evenodd" clip-rule="evenodd" d="M251.494 250.757L252.611 250.259C289.84 244.726 363.491 197.372 363.491 54.285H359.115C359.115 194.776 286.428 240.903 251.494 246.371C207.944 234.456 182.507 199.59 165.995 161.524C149.418 123.309 143.884 81.2712 143.884 54.2851L139.509 54.285C139.508 81.813 145.131 124.556 162.03 163.514C178.941 202.5 204.941 237.991 250.424 250.259L251.494 250.757Z" fill="#9E9773"/>
<path fill-rule="evenodd" clip-rule="evenodd" d="M156.389 248.793L251.505 342.552L347.55 248.771L251.807 149.471L156.389 248.793ZM142.254 248.986L251.472 356.644L361.73 248.986L251.794 134.964L142.254 248.986Z" fill="#9E9773"/>
<path fill-rule="evenodd" clip-rule="evenodd" d="M251.501 398.935L232.981 422.505L251.501 447L270.02 422.505L251.501 398.935ZM251.501 415.218L245.682 422.623L251.501 430.319L257.319 422.623L251.501 415.218Z" fill="#9E9773"/>
<path fill-rule="evenodd" clip-rule="evenodd" d="M251.501 54.6783L232.981 78.2476L251.501 102.743L270.02 78.2476L251.501 54.6783ZM251.501 70.9611L245.682 78.3659L251.501 86.0616L257.319 78.3659L251.501 70.9611Z" fill="#9E9773"/>
<path d="M243.68 27.2696H253.74V24.4175C252.994 24.4103 252.247 24.4066 251.5 24.4066C248.883 24.4066 246.276 24.4511 243.68 24.5392V27.2696Z" fill="#9E9773"/>
<path fill-rule="evenodd" clip-rule="evenodd" d="M477.85 250.757C477.85 126.495 377.718 25.6194 253.74 24.4175V10.0702C252.994 10.0634 252.247 10.06 251.5 10.06C248.883 10.06 246.276 10.1016 243.68 10.1842V24.5392C122.291 28.6605 25.15 128.364 25.15 250.757C25.15 375.766 126.49 477.107 251.5 477.107C376.51 477.107 477.85 375.766 477.85 250.757ZM243.68 24.5392C246.276 24.4511 248.883 24.4066 251.5 24.4066C252.247 24.4066 252.994 24.4103 253.74 24.4175V27.2696H243.68V24.5392ZM35.21 250.757C35.21 370.21 132.046 467.047 251.5 467.047C370.954 467.047 467.79 370.21 467.79 250.757C467.79 131.303 370.954 34.4666 251.5 34.4666C132.046 34.4666 35.21 131.303 35.21 250.757ZM251.5 492.94C252.247 492.94 252.994 492.937 253.74 492.93V499.972H243.68V492.816C246.276 492.898 248.883 492.94 251.5 492.94Z" fill="#9E9773"/>
<path fill-rule="evenodd" clip-rule="evenodd" d="M0 251.5C0 112.6 112.6 0 251.5 0C390.4 0 503 112.6 503 251.5C503 390.4 390.4 503 251.5 503C112.6 503 0 390.4 0 251.5ZM243.68 0.461738L253.74 0.461738V10.0702C386.052 11.2726 492.94 118.904 492.94 251.5C492.94 384.096 386.052 491.727 253.74 492.93V499.972H243.68V492.816C238.006 492.635 232.382 492.259 226.814 491.694C105.067 479.329 10.06 376.51 10.06 251.5C10.06 120.773 113.956 14.3121 243.68 10.1842V0.461738Z" fill="#9E9773"/>
<path d="M253.74 0.461738L243.68 0.461738V10.1842C246.276 10.1016 248.883 10.06 251.5 10.06C252.247 10.06 252.994 10.0634 253.74 10.0702V0.461738Z" fill="#9E9773"/>
</svg>
