<svg width="36" height="36" viewBox="0 0 36 36" fill="none" xmlns="http://www.w3.org/2000/svg">
<path fill-rule="evenodd" clip-rule="evenodd" d="M17.7662 1.37728C17.6937 2.23536 17.5795 5.13136 17.5124 7.81284C17.4453 10.4943 17.3789 12.7002 17.3647 12.7148C17.3507 12.7292 16.9711 12.8012 16.5213 12.8745L15.7038 13.0079L15.1957 11.9704C14.6352 10.8262 14.4855 11.1449 14.994 12.3998C15.1706 12.8355 15.2818 13.2105 15.2409 13.2333C15.2002 13.256 14.8846 13.4695 14.5399 13.7078C14.1951 13.9461 13.884 14.0774 13.8487 13.9998C13.7126 13.7 8.90615 9.47048 8.70157 9.47048C8.58289 9.47048 8.52266 9.5091 8.56788 9.55648C8.6133 9.60368 9.74738 10.741 11.0882 12.0839L13.5264 14.5255L13.0776 15.1669C12.8307 15.5199 12.6048 15.8403 12.5756 15.8791C12.5464 15.9181 12.1019 15.8083 11.5878 15.6354C10.5081 15.272 10.5262 15.275 10.5262 15.4676C10.5262 15.5482 10.9277 15.8245 11.4184 16.0816C12.2786 16.5322 12.3058 16.574 12.182 17.2513C12.1113 17.6376 12.0432 17.9683 12.0304 17.9861C12.0177 18.0038 9.50035 18.0764 6.43636 18.1474C-1.62428 18.334 -2.12487 18.53 4.99698 18.7106C11.2612 18.8695 11.8501 18.8972 11.9771 19.0386C12.0191 19.0854 12.1107 19.4368 12.1806 19.8194C12.306 20.5051 12.293 20.5215 11.2758 20.9755C10.1303 21.4868 10.2596 21.7583 11.4206 21.2791C12.4324 20.8616 12.5351 20.8856 13.0714 21.6633L13.5432 22.3475L12.1828 23.7451C11.4346 24.5141 10.2671 25.6994 9.58822 26.3796C8.90951 27.0596 8.35402 27.6716 8.35402 27.7393C8.35402 27.9031 8.81334 27.5111 11.5687 24.9956L13.8953 22.8717L14.5803 23.2359C14.9573 23.4364 15.2656 23.6225 15.2656 23.6496C15.2656 23.6767 15.1212 24.0552 14.9447 24.4909C14.7681 24.9265 14.6795 25.338 14.7476 25.4053C14.8157 25.4726 15.0268 25.1561 15.2166 24.7019C15.5564 23.8889 15.5738 23.8779 16.3442 23.9953C16.7747 24.0611 17.1706 24.1578 17.2239 24.2106C17.3501 24.3351 17.604 30.2954 17.6216 33.5389C17.6465 38.1321 17.8659 35.9202 17.9715 30.0114C18.0288 26.812 18.0876 24.1847 18.1023 24.1732C18.1169 24.1615 18.4632 24.101 18.8718 24.0386C19.5926 23.9288 19.6293 23.9524 20.1143 24.84C20.635 25.7924 20.6305 25.8143 20.2713 24.079C20.1836 23.6546 20.2646 23.5335 20.777 23.3239C21.1125 23.1866 21.3872 22.9972 21.3872 22.9031C21.3872 22.4241 21.8718 22.8377 26.2705 27.0715C27.5261 28.2799 27.4796 27.8352 26.2125 26.5154C24.9356 25.1851 23.0278 23.1595 22.5164 22.5908C22.1789 22.2156 22.1789 22.1749 22.5164 21.5894C22.9267 20.8776 22.8347 20.8971 24.0618 21.2618C25.362 21.6483 25.4301 21.4689 24.1882 20.9293C23.1961 20.4983 23.1771 20.4745 23.2944 19.8064C23.3604 19.431 23.4532 19.0811 23.5006 19.029C23.5482 18.9768 25.3359 18.9237 27.4733 18.9109C34.6382 18.8682 36.0002 18.8321 36 18.685C36 18.6047 35.1779 18.5351 34.1734 18.5304C33.1688 18.5259 30.9252 18.442 29.1874 18.3443C27.4496 18.2466 25.5391 18.1556 24.9417 18.1423C23.5053 18.1101 23.4277 18.0928 23.4277 17.8039C23.4277 17.668 23.3687 17.3244 23.2966 17.0405C23.1791 16.5785 23.2695 16.4607 24.1522 15.9244C25.3213 15.2139 25.4332 14.9939 24.3987 15.4401C23.1169 15.9928 22.9076 15.9712 22.4411 15.2371L22.014 14.5649L23.8777 12.6516C25.7259 10.7543 26.6416 9.61577 25.8134 10.2453C25.6054 10.4033 24.6098 11.3247 23.6005 12.293C22.5914 13.2612 21.7028 14.0719 21.6258 14.0947C21.5489 14.1173 21.2352 13.9334 20.9287 13.6862L20.3716 13.2363L20.6631 12.1334C21.0017 10.8532 20.7875 10.6334 20.3959 11.8594C20.012 13.0619 19.9024 13.1559 19.0948 12.9759C18.7093 12.8901 18.3424 12.769 18.2794 12.7068C18.2164 12.6448 18.1283 9.80689 18.0837 6.40053C18.0391 2.99416 17.979 0.119421 17.9502 0.0121618C17.9216 -0.0950976 17.8388 0.519206 17.7662 1.37728ZM16.401 13.3102C15.9812 13.4186 15.9729 13.5781 16.3416 14.4497C16.7829 15.4928 17.2403 15.3407 17.2403 14.1509C17.2403 13.1625 17.1856 13.1077 16.401 13.3102ZM18.2277 14.1509C18.2277 15.3809 18.639 15.4608 19.2164 14.3432L19.6208 13.5602L19.1088 13.3681C18.2938 13.0619 18.2277 13.1208 18.2277 14.1509ZM14.8212 14.0327C14.3643 14.3748 14.3761 14.4268 15.0711 15.1289C15.8339 15.8996 16.0967 15.7424 15.7908 14.6987C15.5248 13.7915 15.326 13.655 14.8212 14.0327ZM19.7624 14.6338C19.3339 15.7758 19.6161 15.9271 20.5766 15.0702L21.3309 14.3972L20.7855 14.0789C20.4856 13.904 20.2063 13.7609 20.1651 13.7609C20.1238 13.7609 19.9427 14.1536 19.7624 14.6338ZM13.2977 15.5031C13.0106 16.0332 13.0308 16.0872 13.5957 16.2994C15.1532 16.8841 15.4121 16.7296 14.5568 15.726C13.9678 15.0347 13.588 14.9674 13.2977 15.5031ZM21.1279 15.673C20.5967 16.2206 20.418 16.8811 20.8011 16.8811C20.9133 16.8811 21.3132 16.754 21.6897 16.5985C22.401 16.305 22.5835 15.8003 22.1376 15.36C21.8053 15.0318 21.7263 15.0562 21.1279 15.673ZM16.7257 16.0808C16.1098 16.3589 15.8064 16.6682 15.4634 17.3677C15.0383 18.2353 15.0286 18.341 15.2962 19.1923C15.652 20.3234 16.5401 20.9778 17.7138 20.9736C18.8122 20.9697 19.4172 20.6278 19.9577 19.7052C21.2288 17.5362 19.0108 15.0491 16.7257 16.0808ZM12.446 17.4022C12.3341 17.981 12.6066 18.3114 13.0602 18.1466C13.2047 18.0941 13.5825 18.0512 13.8994 18.0512C14.2164 18.0512 14.4757 17.9654 14.4757 17.8607C14.4757 17.6099 13.7197 17.1346 13.0699 16.9771C12.618 16.8675 12.5393 16.9213 12.446 17.4022ZM21.7328 17.2212C20.9046 17.7326 21.0424 18.0512 22.0914 18.0512C22.9581 18.0512 22.9909 18.0304 22.9307 17.5167C22.8552 16.8698 22.4601 16.7725 21.7328 17.2212ZM12.5395 19.3904C12.5922 19.8393 12.6834 19.9 13.2662 19.8725C13.8619 19.8444 14.687 19.3498 14.4638 19.1544C14.416 19.1125 13.95 19.0329 13.4281 18.9776C12.4978 18.8787 12.4804 18.8869 12.5395 19.3904ZM21.6019 19.0033C20.8566 19.1367 20.9463 19.2921 22.1027 19.8717C22.7901 20.2163 22.967 20.1406 22.967 19.5022C22.967 19.1661 22.5008 18.7088 22.309 18.857C22.2909 18.8711 21.9725 18.937 21.6019 19.0033ZM13.9326 20.4343C13.0177 20.6253 12.8992 20.8926 13.4389 21.5477L13.7845 21.9674L14.4538 21.2649C15.2419 20.4378 15.0884 20.1931 13.9326 20.4343ZM20.5973 20.3635C20.5973 20.6161 21.6976 21.7565 21.9413 21.7565C22.0361 21.7565 22.216 21.5346 22.3412 21.2635C22.5462 20.8193 22.5191 20.752 22.0679 20.5825C21.1238 20.228 20.5973 20.1496 20.5973 20.3635ZM19.5347 21.3291C19.4802 21.4162 19.53 21.8552 19.6455 22.3045C19.8718 23.1852 20.2077 23.3266 20.8799 22.8243C21.2531 22.5456 21.251 22.5286 20.7812 22.0325C20.1951 21.4139 19.6678 21.1161 19.5347 21.3291ZM14.8916 21.926L14.2211 22.475L14.6885 22.7983C14.9457 22.9762 15.2154 23.1217 15.2881 23.1217C15.4034 23.1217 16.0555 21.7099 16.0555 21.4601C16.0555 21.2086 15.4923 21.4338 14.8916 21.926ZM16.4642 22.3642C15.9289 23.2317 15.9494 23.478 16.5703 23.6318C17.1957 23.7869 17.4089 23.5115 17.3104 22.6759C17.1984 21.7265 16.921 21.6243 16.4642 22.3642ZM18.3453 21.9213C18.2885 22.012 18.183 22.4508 18.1109 22.8964C17.9879 23.6564 18.0089 23.7065 18.4492 23.7038C19.3734 23.6979 19.5268 23.4356 19.123 22.5514C18.7664 21.7704 18.5497 21.5949 18.3453 21.9213Z" fill="#800020"/>
</svg>
