<svg width="37" height="36" viewBox="0 0 37 36" fill="none" xmlns="http://www.w3.org/2000/svg">
<path fill-rule="evenodd" clip-rule="evenodd" d="M17.9551 1.37728C17.8827 2.23536 17.7685 5.13136 17.7014 7.81284C17.6342 10.4943 17.5679 12.7002 17.5537 12.7148C17.5396 12.7292 17.1601 12.8012 16.7103 12.8745L15.8927 13.0079L15.3846 11.9704C14.8242 10.8262 14.6745 11.1449 15.183 12.3998C15.3595 12.8355 15.4707 13.2105 15.4298 13.2333C15.3892 13.256 15.0736 13.4695 14.7288 13.7078C14.384 13.9461 14.073 14.0774 14.0377 13.9998C13.9016 13.7 9.09512 9.47048 8.89053 9.47048C8.77185 9.47048 8.71162 9.5091 8.75685 9.55648C8.80226 9.60368 9.93635 10.741 11.2772 12.0839L13.7154 14.5255L13.2665 15.1669C13.0197 15.5199 12.7938 15.8403 12.7646 15.8791C12.7353 15.9181 12.2908 15.8083 11.7768 15.6354C10.697 15.272 10.7152 15.275 10.7152 15.4676C10.7152 15.5482 11.1166 15.8245 11.6074 16.0816C12.4676 16.5322 12.4948 16.574 12.371 17.2513C12.3003 17.6376 12.2322 17.9683 12.2193 17.9861C12.2067 18.0038 9.68931 18.0764 6.62533 18.1474C-1.43531 18.334 -1.93591 18.53 5.18595 18.7106C11.4502 18.8695 12.039 18.8972 12.166 19.0386C12.2081 19.0854 12.2997 19.4368 12.3696 19.8194C12.495 20.5051 12.482 20.5215 11.4648 20.9755C10.3193 21.4868 10.4486 21.7583 11.6095 21.2791C12.6214 20.8616 12.7241 20.8856 13.2604 21.6633L13.7322 22.3475L12.3718 23.7451C11.6236 24.5141 10.4561 25.6994 9.77719 26.3796C9.09847 27.0596 8.54298 27.6716 8.54298 27.7393C8.54298 27.9031 9.00231 27.5111 11.7576 24.9956L14.0843 22.8717L14.7693 23.2359C15.1463 23.4364 15.4545 23.6225 15.4545 23.6496C15.4545 23.6767 15.3102 24.0552 15.1336 24.4909C14.9571 24.9265 14.8684 25.338 14.9366 25.4053C15.0047 25.4726 15.2158 25.1561 15.4056 24.7019C15.7454 23.8889 15.7628 23.8779 16.5331 23.9953C16.9636 24.0611 17.3596 24.1578 17.4129 24.2106C17.5391 24.3351 17.793 30.2954 17.8106 33.5389C17.8355 38.1321 18.0548 35.9202 18.1605 30.0114C18.2178 26.812 18.2766 24.1847 18.2912 24.1732C18.3058 24.1615 18.6522 24.101 19.0608 24.0386C19.7815 23.9288 19.8183 23.9524 20.3033 24.84C20.824 25.7924 20.8195 25.8143 20.4603 24.079C20.3726 23.6546 20.4536 23.5335 20.966 23.3239C21.3015 23.1866 21.5762 22.9972 21.5762 22.9031C21.5762 22.4241 22.0608 22.8377 26.4595 27.0715C27.715 28.2799 27.6686 27.8352 26.4014 26.5154C25.1246 25.1851 23.2168 23.1595 22.7053 22.5908C22.3679 22.2156 22.3679 22.1749 22.7053 21.5894C23.1157 20.8776 23.0237 20.8971 24.2508 21.2618C25.5509 21.6483 25.619 21.4689 24.3771 20.9293C23.385 20.4983 23.3661 20.4745 23.4834 19.8064C23.5493 19.431 23.6421 19.0811 23.6895 19.029C23.7371 18.9768 25.5248 18.9237 27.6623 18.9109C34.8272 18.8682 36.1892 18.8321 36.189 18.685C36.189 18.6047 35.3669 18.5351 34.3623 18.5304C33.3578 18.5259 31.1141 18.442 29.3764 18.3443C27.6386 18.2466 25.728 18.1556 25.1307 18.1423C23.6943 18.1101 23.6167 18.0928 23.6167 17.8039C23.6167 17.668 23.5576 17.3244 23.4855 17.0405C23.3681 16.5785 23.4585 16.4607 24.3412 15.9244C25.5102 15.2139 25.6222 14.9939 24.5876 15.4401C23.3058 15.9928 23.0965 15.9712 22.6301 15.2371L22.203 14.5649L24.0667 12.6516C25.9149 10.7543 26.8305 9.61577 26.0023 10.2453C25.7944 10.4033 24.7987 11.3247 23.7895 12.293C22.7804 13.2612 21.8917 14.0719 21.8147 14.0947C21.7379 14.1173 21.4241 13.9334 21.1177 13.6862L20.5606 13.2363L20.852 12.1334C21.1907 10.8532 20.9765 10.6334 20.5849 11.8594C20.201 13.0619 20.0914 13.1559 19.2837 12.9759C18.8983 12.8901 18.5313 12.769 18.4684 12.7068C18.4054 12.6448 18.3173 9.80689 18.2727 6.40053C18.228 2.99416 18.168 0.119421 18.1392 0.0121618C18.1105 -0.0950976 18.0278 0.519206 17.9551 1.37728ZM16.59 13.3102C16.1702 13.4186 16.1619 13.5781 16.5306 14.4497C16.9719 15.4928 17.4293 15.3407 17.4293 14.1509C17.4293 13.1625 17.3746 13.1077 16.59 13.3102ZM18.4166 14.1509C18.4166 15.3809 18.828 15.4608 19.4054 14.3432L19.8098 13.5602L19.2977 13.3681C18.4828 13.0619 18.4166 13.1208 18.4166 14.1509ZM15.0102 14.0327C14.5533 14.3748 14.5651 14.4268 15.26 15.1289C16.0229 15.8996 16.2857 15.7424 15.9798 14.6987C15.7138 13.7915 15.515 13.655 15.0102 14.0327ZM19.9514 14.6338C19.5229 15.7758 19.8051 15.9271 20.7656 15.0702L21.5199 14.3972L20.9745 14.0789C20.6745 13.904 20.3953 13.7609 20.354 13.7609C20.3128 13.7609 20.1317 14.1536 19.9514 14.6338ZM13.4867 15.5031C13.1996 16.0332 13.2197 16.0872 13.7847 16.2994C15.3422 16.8841 15.6011 16.7296 14.7458 15.726C14.1567 15.0347 13.777 14.9674 13.4867 15.5031ZM21.3169 15.673C20.7857 16.2206 20.607 16.8811 20.9901 16.8811C21.1022 16.8811 21.5021 16.754 21.8787 16.5985C22.59 16.305 22.7725 15.8003 22.3266 15.36C21.9942 15.0318 21.9152 15.0562 21.3169 15.673ZM16.9146 16.0808C16.2987 16.3589 15.9954 16.6682 15.6524 17.3677C15.2272 18.2353 15.2176 18.341 15.4851 19.1923C15.841 20.3234 16.729 20.9778 17.9028 20.9736C19.0011 20.9697 19.6062 20.6278 20.1467 19.7052C21.4178 17.5362 19.1998 15.0491 16.9146 16.0808ZM12.635 17.4022C12.523 17.981 12.7956 18.3114 13.2492 18.1466C13.3937 18.0941 13.7715 18.0512 14.0884 18.0512C14.4054 18.0512 14.6646 17.9654 14.6646 17.8607C14.6646 17.6099 13.9087 17.1346 13.2588 16.9771C12.807 16.8675 12.7282 16.9213 12.635 17.4022ZM21.9218 17.2212C21.0936 17.7326 21.2314 18.0512 22.2804 18.0512C23.1471 18.0512 23.1799 18.0304 23.1196 17.5167C23.0442 16.8698 22.6491 16.7725 21.9218 17.2212ZM12.7284 19.3904C12.7811 19.8393 12.8724 19.9 13.4551 19.8725C14.0509 19.8444 14.8759 19.3498 14.6528 19.1544C14.605 19.1125 14.139 19.0329 13.617 18.9776C12.6868 18.8787 12.6694 18.8869 12.7284 19.3904ZM21.7908 19.0033C21.0456 19.1367 21.1352 19.2921 22.2916 19.8717C22.979 20.2163 23.156 20.1406 23.156 19.5022C23.156 19.1661 22.6897 18.7088 22.498 18.857C22.4798 18.8711 22.1615 18.937 21.7908 19.0033ZM14.1216 20.4343C13.2067 20.6253 13.0882 20.8926 13.6279 21.5477L13.9735 21.9674L14.6427 21.2649C15.4308 20.4378 15.2774 20.1931 14.1216 20.4343ZM20.7863 20.3635C20.7863 20.6161 21.8866 21.7565 22.1303 21.7565C22.2251 21.7565 22.405 21.5346 22.5302 21.2635C22.7351 20.8193 22.7081 20.752 22.2569 20.5825C21.3128 20.228 20.7863 20.1496 20.7863 20.3635ZM19.7237 21.3291C19.6692 21.4162 19.719 21.8552 19.8345 22.3045C20.0608 23.1852 20.3967 23.3266 21.0689 22.8243C21.4421 22.5456 21.4399 22.5286 20.9701 22.0325C20.384 21.4139 19.8568 21.1161 19.7237 21.3291ZM15.0805 21.926L14.4101 22.475L14.8775 22.7983C15.1346 22.9762 15.4044 23.1217 15.477 23.1217C15.5924 23.1217 16.2444 21.7099 16.2444 21.4601C16.2444 21.2085 15.6812 21.4338 15.0805 21.926ZM16.6532 22.3642C16.1178 23.2317 16.1384 23.478 16.7592 23.6318C17.3846 23.7869 17.5979 23.5115 17.4994 22.6759C17.3874 21.7265 17.1099 21.6243 16.6532 22.3642ZM18.5343 21.9213C18.4774 22.012 18.372 22.4508 18.2999 22.8964C18.1769 23.6564 18.1978 23.7065 18.6382 23.7038C19.5624 23.6979 19.7158 23.4356 19.312 22.5514C18.9553 21.7704 18.7387 21.5949 18.5343 21.9213Z" fill="#FFDFAA"/>
</svg>
