<svg width="31" height="26" viewBox="0 0 31 26" fill="none" xmlns="http://www.w3.org/2000/svg">
<path d="M2.56234 11.4638C10.6154 7.95521 15.9853 5.64214 18.6722 4.52457C26.3438 1.3337 27.9379 0.779418 28.9769 0.76092C29.2054 0.757089 29.7163 0.813723 30.0473 1.08228C30.3268 1.30905 30.4037 1.61538 30.4405 1.83038C30.4773 2.04539 30.5231 2.53516 30.4867 2.91786C30.0709 7.28592 28.2721 17.886 27.357 22.7783C26.9697 24.8484 26.2073 25.5425 25.4691 25.6105C23.8649 25.7581 22.6467 24.5503 21.093 23.5318C18.6617 21.9381 17.2882 20.946 14.9282 19.3908C12.2008 17.5934 13.9688 16.6056 15.5232 14.9912C15.9299 14.5687 22.9981 8.13973 23.1349 7.55652C23.152 7.48358 23.1679 7.21169 23.0063 7.06812C22.8448 6.92456 22.6064 6.97365 22.4344 7.0127C22.1905 7.06804 18.3065 9.63524 10.7823 14.7143C9.67983 15.4713 8.68124 15.8402 7.78655 15.8209C6.80022 15.7996 4.90291 15.2632 3.49246 14.8047C1.76249 14.2424 0.387541 13.945 0.507268 12.99C0.569629 12.4926 1.25465 11.9838 2.56234 11.4638Z" fill="#EDE5B3"/>
</svg>
