<svg width="271" height="100" viewBox="0 0 271 100" fill="none" xmlns="http://www.w3.org/2000/svg">
<g clip-path="url(#clip0_1024_742)">
<path d="M24.2666 27.6479L2.6357 48.678L24.2666 70.9098" stroke="url(#paint0_linear_1024_742)" stroke-width="2"/>
<path d="M42.2925 15.03H95.1682L107.786 27.6481H139.031" stroke="url(#paint1_linear_1024_742)" stroke-width="1.20172"/>
<path d="M229.761 15.03H177.486L164.868 27.6481H139.031" stroke="url(#paint2_linear_1024_742)" stroke-width="1.20172"/>
<path d="M229.76 84.7295L177.484 84.7295L164.866 72.1115L133.621 72.1115" stroke="url(#paint3_linear_1024_742)" stroke-width="1.20172"/>
<path d="M42.2925 84.7295L95.168 84.7295L107.786 72.1115L133.623 72.1115" stroke="url(#paint4_linear_1024_742)" stroke-width="1.20172"/>
<path d="M229.159 15.0301L235.769 8.42065L251.391 24.043L241.176 34.2576" stroke="url(#paint5_linear_1024_742)" stroke-width="1.20172"/>
<path d="M42.8936 15.0301L36.2841 8.42065L20.6618 24.043L30.8764 34.2576" stroke="url(#paint6_linear_1024_742)" stroke-width="1.20172"/>
<path d="M247.185 28.8499L268.816 49.8799L247.185 72.1117" stroke="url(#paint7_linear_1024_742)" stroke-width="2"/>
<path d="M113.425 30.0515L134.455 8.42061L156.687 30.0515" stroke="#C89C3E" stroke-width="1.20172"/>
<path d="M113.425 70.3091L134.455 91.94L156.687 70.3091" stroke="#C89C3E" stroke-width="1.20172"/>
<path d="M42.8931 84.7296L35.0819 91.9399L19.4596 76.3176L29.6742 66.103" stroke="url(#paint8_linear_1024_742)" stroke-width="1.20172"/>
<path d="M229.159 84.1288L235.769 90.7383L251.391 75.116L241.176 64.9014" stroke="url(#paint9_linear_1024_742)" stroke-width="1.20172"/>
<path d="M36.2837 21.6394V28.8497L14.6528 49.2789L36.2837 69.7081V77.5192H235.769V69.7081L256.198 49.2789L235.769 28.8497V21.6394H36.2837Z" fill="url(#paint10_linear_1024_742)" stroke="url(#paint11_linear_1024_742)" stroke-width="4"/>
<g filter="url(#filter0_dd_1024_742)">
<path d="M36.2837 21.6394V28.8497L14.6528 49.2789L36.2837 69.7081V77.5192H235.769V69.7081L256.198 49.2789L235.769 28.8497V21.6394H36.2837Z" fill="url(#paint12_linear_1024_742)" style="mix-blend-mode:hue" shape-rendering="crispEdges"/>
</g>
<g filter="url(#filter1_d_1024_742)">
<path d="M61.1018 62.1385C60.6538 62.1385 60.2938 62.0185 60.0218 61.7785C59.7338 61.5385 59.5898 61.2265 59.5898 60.8425C59.5898 60.5225 59.6858 60.2345 59.8778 59.9785C60.0698 59.7225 60.3338 59.5945 60.6698 59.5945C60.9578 59.5945 61.1578 59.6745 61.2698 59.8345C61.3818 59.9945 61.4618 60.1785 61.5098 60.3865C61.5418 60.5945 61.5978 60.7785 61.6778 60.9385C61.7418 61.0985 61.8778 61.1785 62.0858 61.1785C62.3898 61.1785 62.6698 61.0025 62.9258 60.6505C63.1658 60.2985 63.3578 59.8025 63.5018 59.1625L67.6298 41.2825C67.7098 40.9465 67.7098 40.7225 67.6298 40.6105C67.5498 40.4985 67.3498 40.4105 67.0298 40.3465L66.5498 40.2505C66.3418 40.2025 66.2378 40.1145 66.2378 39.9865C66.2378 39.7945 66.3818 39.6985 66.6698 39.6985H70.9418C71.1658 39.6985 71.2778 39.7785 71.2778 39.9385C71.2778 40.1145 71.1178 40.2265 70.7978 40.2745L70.3178 40.3465C69.9658 40.3945 69.7258 40.4825 69.5978 40.6105C69.4698 40.7225 69.3658 40.9465 69.2858 41.2825L65.9018 55.9225C65.4538 57.8425 64.7978 59.3545 63.9338 60.4585C63.0858 61.5785 62.1418 62.1385 61.1018 62.1385ZM72.5822 57.1945C71.5902 57.1945 70.8062 56.7865 70.2302 55.9705C69.6542 55.1385 69.3662 54.0185 69.3662 52.6105C69.3662 51.5705 69.5342 50.5705 69.8702 49.6105C70.2062 48.6505 70.6462 47.7945 71.1902 47.0425C71.7502 46.2905 72.3662 45.6985 73.0382 45.2665C73.7262 44.8185 74.4142 44.5945 75.1022 44.5945C76.0942 44.5945 76.8782 45.0025 77.4542 45.8185C78.0302 46.6345 78.3182 47.7545 78.3182 49.1785C78.3182 50.2185 78.1502 51.2185 77.8142 52.1785C77.4782 53.1385 77.0302 53.9945 76.4702 54.7465C75.9262 55.4985 75.3102 56.0985 74.6222 56.5465C73.9502 56.9785 73.2702 57.1945 72.5822 57.1945ZM72.5342 56.6185C73.0462 56.6185 73.5422 56.3705 74.0222 55.8745C74.5182 55.3785 74.9662 54.7225 75.3662 53.9065C75.7662 53.0905 76.0862 52.1865 76.3262 51.1945C76.5662 50.1865 76.6862 49.1785 76.6862 48.1705C76.6862 46.1705 76.1662 45.1705 75.1262 45.1705C74.6302 45.1705 74.1342 45.4185 73.6382 45.9145C73.1422 46.3945 72.6942 47.0425 72.2942 47.8585C71.9102 48.6745 71.5982 49.5865 71.3582 50.5945C71.1182 51.5865 70.9982 52.5865 70.9982 53.5945C70.9982 55.6105 71.5102 56.6185 72.5342 56.6185ZM83.7197 42.4585C83.4157 42.4585 83.1597 42.3545 82.9517 42.1465C82.7597 41.9225 82.6637 41.6585 82.6637 41.3545C82.6637 40.9225 82.7917 40.5785 83.0477 40.3225C83.3197 40.0665 83.6237 39.9385 83.9597 39.9385C84.2797 39.9385 84.5437 40.0425 84.7517 40.2505C84.9757 40.4425 85.0877 40.6985 85.0877 41.0185C85.0877 41.4665 84.9517 41.8185 84.6797 42.0745C84.4077 42.3305 84.0877 42.4585 83.7197 42.4585ZM81.7517 57.2185C81.2237 57.2185 80.8477 57.0265 80.6237 56.6425C80.3997 56.2425 80.3917 55.5945 80.5997 54.6985L82.3757 47.0905C82.4557 46.7385 82.4637 46.4665 82.3997 46.2745C82.3517 46.0665 82.2077 45.9625 81.9677 45.9625C81.6797 45.9625 81.3597 46.1785 81.0077 46.6105C80.6717 47.0265 80.2877 47.8265 79.8557 49.0105C79.7917 49.2185 79.6797 49.3225 79.5197 49.3225C79.2797 49.3225 79.2157 49.1785 79.3277 48.8905C79.6797 47.7865 80.0477 46.9225 80.4317 46.2985C80.8317 45.6745 81.2317 45.2345 81.6317 44.9785C82.0317 44.7225 82.3997 44.5945 82.7357 44.5945C83.2957 44.5945 83.6877 44.7945 83.9117 45.1945C84.1357 45.5785 84.1437 46.2185 83.9357 47.1145L82.1597 54.7225C82.0797 55.0745 82.0637 55.3545 82.1117 55.5625C82.1757 55.7545 82.3277 55.8505 82.5677 55.8505C82.8557 55.8505 83.1677 55.6425 83.5037 55.2265C83.8557 54.7945 84.2477 53.9865 84.6797 52.8025C84.7437 52.5945 84.8557 52.4905 85.0157 52.4905C85.2557 52.4905 85.3197 52.6345 85.2077 52.9225C84.8717 54.0105 84.4957 54.8745 84.0797 55.5145C83.6797 56.1385 83.2797 56.5785 82.8797 56.8345C82.4797 57.0905 82.1037 57.2185 81.7517 57.2185ZM87.0098 56.6665L89.2898 47.0905C89.3698 46.7385 89.3778 46.4665 89.3138 46.2745C89.2658 46.0665 89.1218 45.9625 88.8818 45.9625C88.5938 45.9625 88.2738 46.1785 87.9218 46.6105C87.5858 47.0265 87.2018 47.8265 86.7698 49.0105C86.7058 49.2185 86.5938 49.3225 86.4338 49.3225C86.1938 49.3225 86.1298 49.1785 86.2418 48.8905C86.5938 47.7865 86.9618 46.9225 87.3458 46.2985C87.7458 45.6745 88.1458 45.2345 88.5458 44.9785C88.9458 44.7225 89.3138 44.5945 89.6498 44.5945C90.1778 44.5945 90.5538 44.7945 90.7778 45.1945C91.0018 45.5785 91.0098 46.2185 90.8018 47.1145L90.2018 49.7065C90.1858 49.8185 90.2098 49.8825 90.2738 49.8985C90.3378 49.9145 90.3938 49.8745 90.4418 49.7785C91.0658 48.4825 91.6658 47.4585 92.2418 46.7065C92.8178 45.9385 93.3618 45.3945 93.8738 45.0745C94.3858 44.7545 94.8498 44.5945 95.2658 44.5945C95.8578 44.5945 96.2898 44.8345 96.5618 45.3145C96.8338 45.7945 96.8338 46.5305 96.5618 47.5225L94.7378 54.4825C94.6258 54.9305 94.6178 55.2665 94.7138 55.4905C94.8098 55.7145 94.9858 55.8265 95.2418 55.8265C95.5618 55.8265 95.8738 55.6185 96.1778 55.2025C96.4978 54.7705 96.8258 53.9625 97.1618 52.7785C97.2098 52.6025 97.3138 52.5145 97.4738 52.5145C97.6018 52.5145 97.6738 52.5625 97.6898 52.6585C97.7218 52.7545 97.7218 52.8665 97.6898 52.9945C97.3858 54.0825 97.0578 54.9385 96.7058 55.5625C96.3538 56.1705 95.9938 56.5945 95.6258 56.8345C95.2738 57.0745 94.9138 57.1945 94.5458 57.1945C93.9698 57.1945 93.5378 56.9545 93.2498 56.4745C92.9618 55.9945 92.9458 55.2505 93.2018 54.2425L95.0498 47.2825C95.2258 46.6585 95.2498 46.2265 95.1218 45.9865C95.0098 45.7465 94.8418 45.6265 94.6178 45.6265C94.2658 45.6265 93.8658 45.8505 93.4178 46.2985C92.9698 46.7305 92.5138 47.3305 92.0498 48.0985C91.5858 48.8505 91.1298 49.7065 90.6818 50.6665C90.2338 51.6265 89.8258 52.6265 89.4578 53.6665C89.1058 54.7065 88.8178 55.7225 88.5938 56.7145C88.5458 56.8905 88.4338 56.9785 88.2578 56.9785H87.2738C87.0498 56.9785 86.9618 56.8745 87.0098 56.6665ZM108.476 57.1945C106.78 57.1945 105.548 56.6585 104.78 55.5865C104.028 54.5145 103.652 52.9625 103.652 50.9305C103.652 49.9545 103.772 48.9385 104.012 47.8825C104.252 46.8265 104.596 45.8025 105.044 44.8105C105.508 43.8025 106.06 42.8985 106.7 42.0985C107.34 41.2985 108.06 40.6585 108.86 40.1785C109.676 39.6985 110.556 39.4585 111.5 39.4585C112.62 39.4585 113.636 39.8345 114.548 40.5865C114.708 40.7145 114.764 40.8905 114.716 41.1145L113.996 44.7385C113.948 44.9945 113.828 45.1225 113.636 45.1225C113.444 45.1225 113.348 44.9945 113.348 44.7385L113.324 43.8025C113.292 42.4745 113.1 41.5305 112.748 40.9705C112.396 40.4105 111.892 40.1305 111.236 40.1305C110.612 40.1305 110.012 40.3865 109.436 40.8985C108.86 41.3945 108.324 42.0665 107.828 42.9145C107.332 43.7465 106.892 44.6745 106.508 45.6985C106.14 46.7065 105.852 47.7225 105.644 48.7465C105.436 49.7705 105.332 50.7225 105.332 51.6025C105.332 53.0425 105.548 54.2185 105.98 55.1305C106.428 56.0425 107.164 56.4985 108.188 56.4985C108.796 56.4985 109.332 56.2825 109.796 55.8505C110.276 55.4025 110.764 54.6425 111.26 53.5705L111.788 52.4425C111.868 52.2505 111.988 52.1545 112.148 52.1545C112.404 52.1545 112.492 52.3065 112.412 52.6105L111.452 56.3545C111.388 56.5945 111.26 56.7385 111.068 56.7865C110.796 56.8825 110.404 56.9705 109.892 57.0505C109.38 57.1465 108.908 57.1945 108.476 57.1945ZM117.418 57.1945C116.426 57.1945 115.642 56.7865 115.066 55.9705C114.49 55.1385 114.202 54.0185 114.202 52.6105C114.202 51.5705 114.37 50.5705 114.706 49.6105C115.042 48.6505 115.482 47.7945 116.026 47.0425C116.586 46.2905 117.202 45.6985 117.874 45.2665C118.562 44.8185 119.25 44.5945 119.938 44.5945C120.93 44.5945 121.714 45.0025 122.29 45.8185C122.866 46.6345 123.154 47.7545 123.154 49.1785C123.154 50.2185 122.986 51.2185 122.65 52.1785C122.314 53.1385 121.866 53.9945 121.306 54.7465C120.762 55.4985 120.146 56.0985 119.458 56.5465C118.786 56.9785 118.106 57.1945 117.418 57.1945ZM117.37 56.6185C117.882 56.6185 118.378 56.3705 118.858 55.8745C119.354 55.3785 119.802 54.7225 120.202 53.9065C120.602 53.0905 120.922 52.1865 121.162 51.1945C121.402 50.1865 121.522 49.1785 121.522 48.1705C121.522 46.1705 121.002 45.1705 119.962 45.1705C119.466 45.1705 118.97 45.4185 118.474 45.9145C117.978 46.3945 117.53 47.0425 117.13 47.8585C116.746 48.6745 116.434 49.5865 116.194 50.5945C115.954 51.5865 115.834 52.5865 115.834 53.5945C115.834 55.6105 116.346 56.6185 117.37 56.6185ZM137.844 57.1945C137.268 57.1945 136.836 56.9545 136.548 56.4745C136.26 55.9945 136.244 55.2505 136.5 54.2425L138.348 47.2825C138.524 46.6585 138.548 46.2265 138.42 45.9865C138.308 45.7465 138.14 45.6265 137.916 45.6265C137.596 45.6265 137.228 45.8505 136.812 46.2985C136.396 46.7305 135.956 47.3225 135.492 48.0745C135.044 48.8265 134.604 49.6825 134.172 50.6425C133.74 51.6025 133.34 52.6025 132.972 53.6425C132.604 54.6825 132.3 55.7065 132.06 56.7145C132.012 56.8905 131.9 56.9785 131.724 56.9785H130.788C130.564 56.9785 130.476 56.8745 130.524 56.6665L132.732 47.2825C132.876 46.6585 132.892 46.2265 132.78 45.9865C132.684 45.7465 132.524 45.6265 132.3 45.6265C131.996 45.6265 131.636 45.8505 131.22 46.2985C130.804 46.7305 130.372 47.3225 129.924 48.0745C129.476 48.8265 129.036 49.6825 128.604 50.6425C128.172 51.6025 127.772 52.6025 127.404 53.6425C127.036 54.6825 126.74 55.7065 126.516 56.7145C126.468 56.8905 126.356 56.9785 126.18 56.9785H125.196C124.972 56.9785 124.884 56.8745 124.932 56.6665L127.212 47.0905C127.292 46.7385 127.3 46.4665 127.236 46.2745C127.188 46.0665 127.044 45.9625 126.804 45.9625C126.516 45.9625 126.196 46.1785 125.844 46.6105C125.508 47.0265 125.124 47.8265 124.692 49.0105C124.628 49.2185 124.516 49.3225 124.356 49.3225C124.116 49.3225 124.052 49.1785 124.164 48.8905C124.516 47.7865 124.884 46.9225 125.268 46.2985C125.668 45.6745 126.068 45.2345 126.468 44.9785C126.868 44.7225 127.236 44.5945 127.572 44.5945C128.1 44.5945 128.476 44.7945 128.7 45.1945C128.924 45.5785 128.932 46.2185 128.724 47.1145L128.124 49.7065C128.108 49.8185 128.132 49.8825 128.196 49.8985C128.26 49.9145 128.316 49.8745 128.364 49.7785C129.292 47.8585 130.132 46.5145 130.884 45.7465C131.636 44.9785 132.324 44.5945 132.948 44.5945C133.54 44.5945 133.956 44.8345 134.196 45.3145C134.452 45.7945 134.468 46.5305 134.244 47.5225L133.74 49.7065C133.724 49.8185 133.748 49.8825 133.812 49.8985C133.876 49.9145 133.932 49.8745 133.98 49.7785C134.588 48.4825 135.156 47.4585 135.684 46.7065C136.228 45.9385 136.74 45.3945 137.22 45.0745C137.7 44.7545 138.148 44.5945 138.564 44.5945C139.156 44.5945 139.588 44.8345 139.86 45.3145C140.132 45.7945 140.132 46.5305 139.86 47.5225L138.036 54.4825C137.924 54.9305 137.916 55.2665 138.012 55.4905C138.108 55.7145 138.284 55.8265 138.54 55.8265C138.86 55.8265 139.172 55.6185 139.476 55.2025C139.796 54.7705 140.124 53.9625 140.46 52.7785C140.508 52.6025 140.612 52.5145 140.772 52.5145C140.9 52.5145 140.972 52.5625 140.988 52.6585C141.02 52.7545 141.02 52.8665 140.988 52.9945C140.684 54.0825 140.356 54.9385 140.004 55.5625C139.652 56.1705 139.292 56.5945 138.924 56.8345C138.572 57.0745 138.212 57.1945 137.844 57.1945ZM155.726 57.1945C155.15 57.1945 154.718 56.9545 154.43 56.4745C154.142 55.9945 154.126 55.2505 154.382 54.2425L156.23 47.2825C156.406 46.6585 156.43 46.2265 156.302 45.9865C156.19 45.7465 156.022 45.6265 155.798 45.6265C155.478 45.6265 155.11 45.8505 154.694 46.2985C154.278 46.7305 153.838 47.3225 153.374 48.0745C152.926 48.8265 152.486 49.6825 152.054 50.6425C151.622 51.6025 151.222 52.6025 150.854 53.6425C150.486 54.6825 150.182 55.7065 149.942 56.7145C149.894 56.8905 149.782 56.9785 149.606 56.9785H148.67C148.446 56.9785 148.358 56.8745 148.406 56.6665L150.614 47.2825C150.758 46.6585 150.774 46.2265 150.662 45.9865C150.566 45.7465 150.406 45.6265 150.182 45.6265C149.878 45.6265 149.518 45.8505 149.102 46.2985C148.686 46.7305 148.254 47.3225 147.806 48.0745C147.358 48.8265 146.918 49.6825 146.486 50.6425C146.054 51.6025 145.654 52.6025 145.286 53.6425C144.918 54.6825 144.622 55.7065 144.398 56.7145C144.35 56.8905 144.238 56.9785 144.062 56.9785H143.078C142.854 56.9785 142.766 56.8745 142.814 56.6665L145.094 47.0905C145.174 46.7385 145.182 46.4665 145.118 46.2745C145.07 46.0665 144.926 45.9625 144.686 45.9625C144.398 45.9625 144.078 46.1785 143.726 46.6105C143.39 47.0265 143.006 47.8265 142.574 49.0105C142.51 49.2185 142.398 49.3225 142.238 49.3225C141.998 49.3225 141.934 49.1785 142.046 48.8905C142.398 47.7865 142.766 46.9225 143.15 46.2985C143.55 45.6745 143.95 45.2345 144.35 44.9785C144.75 44.7225 145.118 44.5945 145.454 44.5945C145.982 44.5945 146.358 44.7945 146.582 45.1945C146.806 45.5785 146.814 46.2185 146.606 47.1145L146.006 49.7065C145.99 49.8185 146.014 49.8825 146.078 49.8985C146.142 49.9145 146.198 49.8745 146.246 49.7785C147.174 47.8585 148.014 46.5145 148.766 45.7465C149.518 44.9785 150.206 44.5945 150.83 44.5945C151.422 44.5945 151.838 44.8345 152.078 45.3145C152.334 45.7945 152.35 46.5305 152.126 47.5225L151.622 49.7065C151.606 49.8185 151.63 49.8825 151.694 49.8985C151.758 49.9145 151.814 49.8745 151.862 49.7785C152.47 48.4825 153.038 47.4585 153.566 46.7065C154.11 45.9385 154.622 45.3945 155.102 45.0745C155.582 44.7545 156.03 44.5945 156.446 44.5945C157.038 44.5945 157.47 44.8345 157.742 45.3145C158.014 45.7945 158.014 46.5305 157.742 47.5225L155.918 54.4825C155.806 54.9305 155.798 55.2665 155.894 55.4905C155.99 55.7145 156.166 55.8265 156.422 55.8265C156.742 55.8265 157.054 55.6185 157.358 55.2025C157.678 54.7705 158.006 53.9625 158.342 52.7785C158.39 52.6025 158.494 52.5145 158.654 52.5145C158.782 52.5145 158.854 52.5625 158.87 52.6585C158.902 52.7545 158.902 52.8665 158.87 52.9945C158.566 54.0825 158.238 54.9385 157.886 55.5625C157.534 56.1705 157.174 56.5945 156.806 56.8345C156.454 57.0745 156.094 57.1945 155.726 57.1945ZM162.185 57.1945C161.593 57.1945 161.185 56.9305 160.961 56.4025C160.753 55.8585 160.769 55.1465 161.009 54.2665L162.905 47.3065C163.033 46.8425 163.065 46.4825 163.001 46.2265C162.937 45.9705 162.793 45.8425 162.569 45.8425C162.201 45.8425 161.825 46.1225 161.441 46.6825C161.073 47.2425 160.753 48.0185 160.481 49.0105C160.433 49.1865 160.329 49.2745 160.169 49.2745C159.945 49.2745 159.873 49.1145 159.953 48.7945C160.321 47.4505 160.801 46.4185 161.393 45.6985C162.001 44.9625 162.665 44.5945 163.385 44.5945C163.961 44.5945 164.345 44.8585 164.537 45.3865C164.729 45.9145 164.697 46.6345 164.441 47.5465L162.521 54.5065C162.217 55.6105 162.321 56.1625 162.833 56.1625C163.153 56.1625 163.521 55.9465 163.937 55.5145C164.353 55.0825 164.785 54.4905 165.233 53.7385C165.697 52.9865 166.153 52.1305 166.601 51.1705C167.049 50.2105 167.457 49.2025 167.825 48.1465C168.193 47.0905 168.497 46.0425 168.737 45.0025C168.785 44.8265 168.897 44.7385 169.073 44.7385H170.033C170.257 44.7385 170.345 44.8425 170.297 45.0505L168.041 54.6985C167.865 55.4505 168.001 55.8265 168.449 55.8265C169.121 55.8265 169.825 54.8105 170.561 52.7785C170.625 52.5705 170.737 52.4665 170.897 52.4665C170.993 52.4665 171.057 52.5065 171.089 52.5865C171.137 52.6665 171.137 52.7705 171.089 52.8985C170.657 54.2585 170.145 55.3145 169.553 56.0665C168.961 56.8185 168.337 57.1945 167.681 57.1945C166.529 57.1945 166.145 56.3545 166.529 54.6745L167.153 52.0105C167.185 51.8985 167.161 51.8345 167.081 51.8185C167.017 51.8025 166.961 51.8425 166.913 51.9385C165.985 53.8585 165.129 55.2185 164.345 56.0185C163.561 56.8025 162.841 57.1945 162.185 57.1945ZM172.885 56.6665L175.165 47.0905C175.245 46.7385 175.253 46.4665 175.189 46.2745C175.141 46.0665 174.997 45.9625 174.757 45.9625C174.469 45.9625 174.149 46.1785 173.797 46.6105C173.461 47.0265 173.077 47.8265 172.645 49.0105C172.581 49.2185 172.469 49.3225 172.309 49.3225C172.069 49.3225 172.005 49.1785 172.117 48.8905C172.469 47.7865 172.837 46.9225 173.221 46.2985C173.621 45.6745 174.021 45.2345 174.421 44.9785C174.821 44.7225 175.189 44.5945 175.525 44.5945C176.053 44.5945 176.429 44.7945 176.653 45.1945C176.877 45.5785 176.885 46.2185 176.677 47.1145L176.077 49.7065C176.061 49.8185 176.085 49.8825 176.149 49.8985C176.213 49.9145 176.269 49.8745 176.317 49.7785C176.941 48.4825 177.541 47.4585 178.117 46.7065C178.693 45.9385 179.237 45.3945 179.749 45.0745C180.261 44.7545 180.725 44.5945 181.141 44.5945C181.733 44.5945 182.165 44.8345 182.437 45.3145C182.709 45.7945 182.709 46.5305 182.437 47.5225L180.613 54.4825C180.501 54.9305 180.493 55.2665 180.589 55.4905C180.685 55.7145 180.861 55.8265 181.117 55.8265C181.437 55.8265 181.749 55.6185 182.053 55.2025C182.373 54.7705 182.701 53.9625 183.037 52.7785C183.085 52.6025 183.189 52.5145 183.349 52.5145C183.477 52.5145 183.549 52.5625 183.565 52.6585C183.597 52.7545 183.597 52.8665 183.565 52.9945C183.261 54.0825 182.933 54.9385 182.581 55.5625C182.229 56.1705 181.869 56.5945 181.501 56.8345C181.149 57.0745 180.789 57.1945 180.421 57.1945C179.845 57.1945 179.413 56.9545 179.125 56.4745C178.837 55.9945 178.821 55.2505 179.077 54.2425L180.925 47.2825C181.101 46.6585 181.125 46.2265 180.997 45.9865C180.885 45.7465 180.717 45.6265 180.493 45.6265C180.141 45.6265 179.741 45.8505 179.293 46.2985C178.845 46.7305 178.389 47.3305 177.925 48.0985C177.461 48.8505 177.005 49.7065 176.557 50.6665C176.109 51.6265 175.701 52.6265 175.333 53.6665C174.981 54.7065 174.693 55.7225 174.469 56.7145C174.421 56.8905 174.309 56.9785 174.133 56.9785H173.149C172.925 56.9785 172.837 56.8745 172.885 56.6665ZM189.024 42.4585C188.72 42.4585 188.464 42.3545 188.256 42.1465C188.064 41.9225 187.968 41.6585 187.968 41.3545C187.968 40.9225 188.096 40.5785 188.352 40.3225C188.624 40.0665 188.928 39.9385 189.264 39.9385C189.584 39.9385 189.848 40.0425 190.056 40.2505C190.28 40.4425 190.392 40.6985 190.392 41.0185C190.392 41.4665 190.256 41.8185 189.984 42.0745C189.712 42.3305 189.392 42.4585 189.024 42.4585ZM187.056 57.2185C186.528 57.2185 186.152 57.0265 185.928 56.6425C185.704 56.2425 185.696 55.5945 185.904 54.6985L187.68 47.0905C187.76 46.7385 187.768 46.4665 187.704 46.2745C187.656 46.0665 187.512 45.9625 187.272 45.9625C186.984 45.9625 186.664 46.1785 186.312 46.6105C185.976 47.0265 185.592 47.8265 185.16 49.0105C185.096 49.2185 184.984 49.3225 184.824 49.3225C184.584 49.3225 184.52 49.1785 184.632 48.8905C184.984 47.7865 185.352 46.9225 185.736 46.2985C186.136 45.6745 186.536 45.2345 186.936 44.9785C187.336 44.7225 187.704 44.5945 188.04 44.5945C188.6 44.5945 188.992 44.7945 189.216 45.1945C189.44 45.5785 189.448 46.2185 189.24 47.1145L187.464 54.7225C187.384 55.0745 187.368 55.3545 187.416 55.5625C187.48 55.7545 187.632 55.8505 187.872 55.8505C188.16 55.8505 188.472 55.6425 188.808 55.2265C189.16 54.7945 189.552 53.9865 189.984 52.8025C190.048 52.5945 190.16 52.4905 190.32 52.4905C190.56 52.4905 190.624 52.6345 190.512 52.9225C190.176 54.0105 189.8 54.8745 189.384 55.5145C188.984 56.1385 188.584 56.5785 188.184 56.8345C187.784 57.0905 187.408 57.2185 187.056 57.2185ZM193.49 57.1945C192.946 57.1945 192.522 56.9785 192.218 56.5465C191.914 56.1145 191.866 55.4185 192.074 54.4585L194.066 45.7705C194.114 45.5305 194.018 45.4105 193.778 45.4105H192.866C192.642 45.4105 192.53 45.3065 192.53 45.0985C192.53 44.9865 192.57 44.8985 192.65 44.8345C192.73 44.7705 192.826 44.7385 192.938 44.7385H193.802C194.17 44.7385 194.386 44.5705 194.45 44.2345L195.026 41.6665C195.074 41.4905 195.186 41.4025 195.362 41.4025H196.346C196.57 41.4025 196.658 41.5065 196.61 41.7145L196.01 44.3785C195.962 44.6185 196.058 44.7385 196.298 44.7385H197.666C197.938 44.7385 198.074 44.8425 198.074 45.0505C198.074 45.2905 197.906 45.4105 197.57 45.4105H196.274C195.922 45.4105 195.706 45.5785 195.626 45.9145L193.61 54.6985C193.53 55.0505 193.538 55.3305 193.634 55.5385C193.746 55.7305 193.93 55.8265 194.186 55.8265C194.554 55.8265 194.89 55.6185 195.194 55.2025C195.514 54.7865 195.85 53.9945 196.202 52.8265C196.266 52.6185 196.37 52.5145 196.514 52.5145C196.626 52.5145 196.698 52.5625 196.73 52.6585C196.762 52.7545 196.738 52.9305 196.658 53.1865C196.354 54.2745 196.018 55.1065 195.65 55.6825C195.298 56.2585 194.938 56.6585 194.57 56.8825C194.202 57.0905 193.842 57.1945 193.49 57.1945ZM196.934 62.1385C196.326 62.1385 195.854 61.9785 195.518 61.6585C195.182 61.3545 195.014 60.9785 195.014 60.5305C195.014 60.1945 195.102 59.9385 195.278 59.7625C195.454 59.6025 195.646 59.5225 195.854 59.5225C196.158 59.5225 196.374 59.6025 196.502 59.7625C196.63 59.9225 196.726 60.1065 196.79 60.3145C196.854 60.5385 196.958 60.7305 197.102 60.8905C197.23 61.0505 197.446 61.1305 197.75 61.1305C198.342 61.1305 198.926 60.8905 199.502 60.4105C200.078 59.9465 200.55 59.2985 200.918 58.4665C201.286 57.6505 201.446 56.7305 201.398 55.7065L201.038 47.0905C201.022 46.6745 200.95 46.3865 200.822 46.2265C200.694 46.0505 200.534 45.9625 200.342 45.9625C199.99 45.9625 199.654 46.1785 199.334 46.6105C199.014 47.0265 198.75 47.8265 198.542 49.0105C198.494 49.2185 198.39 49.3225 198.23 49.3225C198.006 49.3225 197.918 49.1785 197.966 48.8905C198.158 47.7865 198.422 46.9225 198.758 46.2985C199.11 45.6745 199.478 45.2345 199.862 44.9785C200.262 44.7225 200.63 44.5945 200.966 44.5945C201.462 44.5945 201.854 44.7705 202.142 45.1225C202.43 45.4585 202.59 46.0425 202.622 46.8745L202.958 56.0905C202.958 56.2025 202.99 56.2745 203.054 56.3065C203.134 56.3225 203.206 56.2825 203.27 56.1865C203.83 55.4025 204.334 54.5945 204.782 53.7625C205.246 52.9145 205.614 52.0825 205.886 51.2665C206.158 50.4505 206.294 49.6985 206.294 49.0105C206.294 48.3385 206.222 47.8105 206.078 47.4265C205.934 47.0265 205.782 46.6905 205.622 46.4185C205.478 46.1465 205.406 45.8505 205.406 45.5305C205.406 44.9065 205.678 44.5945 206.222 44.5945C206.99 44.5945 207.374 45.4425 207.374 47.1385C207.374 48.0665 207.214 49.0825 206.894 50.1865C206.574 51.2745 206.134 52.3865 205.574 53.5225C205.03 54.6425 204.398 55.7145 203.678 56.7385C202.974 57.7625 202.23 58.6825 201.446 59.4985C200.678 60.3145 199.902 60.9545 199.118 61.4185C198.35 61.8985 197.622 62.1385 196.934 62.1385Z" fill="url(#paint13_linear_1024_742)"/>
</g>
<mask id="mask0_1024_742" style="mask-type:alpha" maskUnits="userSpaceOnUse" x="14" y="22" width="242" height="56">
<path d="M36.0562 22V29.2103L14.4253 49.6395L36.0562 70.0687V77.8798H235.541V70.0687L255.97 49.6395L235.541 29.2103V22H36.0562Z" fill="#67011A"/>
</mask>
<g mask="url(#mask0_1024_742)">
<rect x="93.9897" y="-124.152" width="57.9173" height="187.771" transform="rotate(45 93.9897 -124.152)" fill="white" fill-opacity="0.2"/>
</g>
</g>
<defs>
<filter id="filter0_dd_1024_742" x="0.652832" y="0.639404" width="269.545" height="98.8799" filterUnits="userSpaceOnUse" color-interpolation-filters="sRGB">
<feFlood flood-opacity="0" result="BackgroundImageFix"/>
<feColorMatrix in="SourceAlpha" type="matrix" values="0 0 0 0 0 0 0 0 0 0 0 0 0 0 0 0 0 0 127 0" result="hardAlpha"/>
<feOffset dy="8"/>
<feGaussianBlur stdDeviation="7"/>
<feComposite in2="hardAlpha" operator="out"/>
<feColorMatrix type="matrix" values="0 0 0 0 0.784314 0 0 0 0 0.607843 0 0 0 0 0.235294 0 0 0 0.3 0"/>
<feBlend mode="normal" in2="BackgroundImageFix" result="effect1_dropShadow_1024_742"/>
<feColorMatrix in="SourceAlpha" type="matrix" values="0 0 0 0 0 0 0 0 0 0 0 0 0 0 0 0 0 0 127 0" result="hardAlpha"/>
<feOffset dy="-7"/>
<feGaussianBlur stdDeviation="7"/>
<feComposite in2="hardAlpha" operator="out"/>
<feColorMatrix type="matrix" values="0 0 0 0 0.784314 0 0 0 0 0.607843 0 0 0 0 0.235294 0 0 0 0.3 0"/>
<feBlend mode="normal" in2="effect1_dropShadow_1024_742" result="effect2_dropShadow_1024_742"/>
<feBlend mode="normal" in="SourceGraphic" in2="effect2_dropShadow_1024_742" result="shape"/>
</filter>
<filter id="filter1_d_1024_742" x="59.5898" y="39.4585" width="148.985" height="23.8816" filterUnits="userSpaceOnUse" color-interpolation-filters="sRGB">
<feFlood flood-opacity="0" result="BackgroundImageFix"/>
<feColorMatrix in="SourceAlpha" type="matrix" values="0 0 0 0 0 0 0 0 0 0 0 0 0 0 0 0 0 0 127 0" result="hardAlpha"/>
<feOffset dx="1.20172" dy="1.20172"/>
<feComposite in2="hardAlpha" operator="out"/>
<feColorMatrix type="matrix" values="0 0 0 0 0.179167 0 0 0 0 0.105443 0 0 0 0 0.0283681 0 0 0 0.49 0"/>
<feBlend mode="normal" in2="BackgroundImageFix" result="effect1_dropShadow_1024_742"/>
<feBlend mode="normal" in="SourceGraphic" in2="effect1_dropShadow_1024_742" result="shape"/>
</filter>
<linearGradient id="paint0_linear_1024_742" x1="48.7712" y1="49.2788" x2="2.6357" y2="49.7595" gradientUnits="userSpaceOnUse">
<stop stop-color="#785A28"/>
<stop offset="0.445189" stop-color="#C89B3C"/>
<stop offset="0.73191" stop-color="#C8AA6E"/>
<stop offset="1" stop-color="#DECA7B"/>
</linearGradient>
<linearGradient id="paint1_linear_1024_742" x1="42.2925" y1="21.4792" x2="139.031" y2="21.4792" gradientUnits="userSpaceOnUse">
<stop offset="0.445189" stop-color="#C89B3C"/>
<stop offset="0.73191" stop-color="#C8AA6E"/>
<stop offset="1" stop-color="#DECA7B"/>
</linearGradient>
<linearGradient id="paint2_linear_1024_742" x1="229.761" y1="21.4792" x2="139.031" y2="21.4792" gradientUnits="userSpaceOnUse">
<stop offset="0.445189" stop-color="#C89B3C"/>
<stop offset="0.73191" stop-color="#C8AA6E"/>
<stop offset="1" stop-color="#DECA7B"/>
</linearGradient>
<linearGradient id="paint3_linear_1024_742" x1="229.76" y1="78.2803" x2="133.621" y2="78.2803" gradientUnits="userSpaceOnUse">
<stop offset="0.445189" stop-color="#C89B3C"/>
<stop offset="0.73191" stop-color="#C8AA6E"/>
<stop offset="1" stop-color="#DECA7B"/>
</linearGradient>
<linearGradient id="paint4_linear_1024_742" x1="42.2925" y1="78.2803" x2="133.623" y2="78.2803" gradientUnits="userSpaceOnUse">
<stop offset="0.445189" stop-color="#C89B3C"/>
<stop offset="0.73191" stop-color="#C8AA6E"/>
<stop offset="1" stop-color="#DECA7B"/>
</linearGradient>
<linearGradient id="paint5_linear_1024_742" x1="229.159" y1="21.6262" x2="251.391" y2="21.6262" gradientUnits="userSpaceOnUse">
<stop offset="0.445189" stop-color="#C89B3C"/>
<stop offset="0.73191" stop-color="#C8AA6E"/>
<stop offset="1" stop-color="#DECA7B"/>
</linearGradient>
<linearGradient id="paint6_linear_1024_742" x1="42.8936" y1="21.6262" x2="20.6618" y2="21.6262" gradientUnits="userSpaceOnUse">
<stop offset="0.445189" stop-color="#C89B3C"/>
<stop offset="0.73191" stop-color="#C8AA6E"/>
<stop offset="1" stop-color="#DECA7B"/>
</linearGradient>
<linearGradient id="paint7_linear_1024_742" x1="226.91" y1="50.9615" x2="268.816" y2="50.9615" gradientUnits="userSpaceOnUse">
<stop stop-color="#785A28"/>
<stop offset="0.445189" stop-color="#C89B3C"/>
<stop offset="0.73191" stop-color="#C8AA6E"/>
<stop offset="1" stop-color="#DECA7B"/>
</linearGradient>
<linearGradient id="paint8_linear_1024_742" x1="42.8931" y1="78.7344" x2="19.4596" y2="78.7344" gradientUnits="userSpaceOnUse">
<stop offset="0.445189" stop-color="#C89B3C"/>
<stop offset="0.73191" stop-color="#C8AA6E"/>
<stop offset="1" stop-color="#DECA7B"/>
</linearGradient>
<linearGradient id="paint9_linear_1024_742" x1="229.159" y1="77.5327" x2="251.391" y2="77.5327" gradientUnits="userSpaceOnUse">
<stop offset="0.445189" stop-color="#C89B3C"/>
<stop offset="0.73191" stop-color="#C8AA6E"/>
<stop offset="1" stop-color="#DECA7B"/>
</linearGradient>
<linearGradient id="paint10_linear_1024_742" x1="24.2666" y1="49.2789" x2="253.794" y2="49.2789" gradientUnits="userSpaceOnUse">
<stop stop-color="#353023"/>
<stop offset="0.528244" stop-color="#9C7148" stop-opacity="0.5"/>
<stop offset="1" stop-color="#1E1E1E"/>
</linearGradient>
<linearGradient id="paint11_linear_1024_742" x1="14.6528" y1="50.2002" x2="256.198" y2="50.2002" gradientUnits="userSpaceOnUse">
<stop offset="0.053105" stop-color="#C89B3C"/>
<stop offset="0.531482" stop-color="#DECA7B"/>
<stop offset="1" stop-color="#83632B"/>
</linearGradient>
<linearGradient id="paint12_linear_1024_742" x1="14.6528" y1="49.5793" x2="256.198" y2="49.5793" gradientUnits="userSpaceOnUse">
<stop offset="0.0453496" stop-color="#67011A"/>
<stop offset="0.501473" stop-color="#9B0128"/>
<stop offset="1" stop-color="#67011A"/>
</linearGradient>
<linearGradient id="paint13_linear_1024_742" x1="135.425" y1="37.4547" x2="135.425" y2="59.9785" gradientUnits="userSpaceOnUse">
<stop offset="0.232947" stop-color="#FFFCF4"/>
<stop offset="1" stop-color="#E7D4AD"/>
</linearGradient>
<clipPath id="clip0_1024_742">
<rect width="270" height="100" fill="white" transform="translate(0.425293)"/>
</clipPath>
</defs>
</svg>
